<?xml version="1.0" encoding="utf-8"?>
<!-- Generator: Adobe Illustrator 16.0.3, SVG Export Plug-In . SVG Version: 6.00 Build 0)  -->
<!DOCTYPE svg PUBLIC "-//W3C//DTD SVG 1.1//EN" "http://www.w3.org/Graphics/SVG/1.1/DTD/svg11.dtd">
<svg version="1.1" id="Layer_1" xmlns="http://www.w3.org/2000/svg" xmlns:xlink="http://www.w3.org/1999/xlink" x="0px" y="0px"
	 width="29.82px" height="29.82px" viewBox="0 0 29.82 29.82" enable-background="new 0 0 29.82 29.82" xml:space="preserve">
<path d="M26.9,0.5H2.91C1.58,0.5,0.5,1.58,0.5,2.92V26.9c0,1.34,1.08,2.42,2.41,2.42H26.9c1.34,0,2.42-1.08,2.42-2.42V2.92
	C29.32,1.58,28.24,0.5,26.9,0.5z M26.83,24.83c0,1.1-0.9,2-2,2H4.99c-1.1,0-2-0.9-2-2V4.99c0-1.1,0.9-2,2-2H24.83c1.1,0,2,0.9,2,2
	V24.83z"/>
</svg>
